# xmcd
#
# Track frame offsets: 
#        150
#        37503
#        65359
#        98164
#        123421
#        143255
#        168390
#        192237
#        214267
#        240277
#        267283
#        288088
#
# Disc length: 4195 seconds
#
# Revision: 1
# Processed by: cddbd v1.5.2PL0 Copyright (c) Steve Scherf et al.
# Submitted via: ExactAudioCopy v0.99pb3
#
DISCID=9910610c
DTITLE=John Irving - The Fourth Hand [CD02)
DYEAR=2001
DGENRE=Audio Book
TTITLE0=John Irving - The Fourth Hand D02 TR01
TTITLE1=John Irving - The Fourth Hand D02 TR02
TTITLE2=John Irving - The Fourth Hand D02 TR03
TTITLE3=John Irving - The Fourth Hand D02 TR04
TTITLE4=John Irving - The Fourth Hand D02 TR05
TTITLE5=John Irving - The Fourth Hand D02 TR06
TTITLE6=John Irving - The Fourth Hand D02 TR07
TTITLE7=John Irving - The Fourth Hand D02 TR08
TTITLE8=John Irving - The Fourth Hand D02 TR09
TTITLE9=John Irving - The Fourth Hand D02 TR10
TTITLE10=John Irving - The Fourth Hand D02 TR11
TTITLE11=John Irving - The Fourth Hand D02 TR12
EXTD=
EXTT0=
EXTT1=
EXTT2=
EXTT3=
EXTT4=
EXTT5=
EXTT6=
EXTT7=
EXTT8=
EXTT9=
EXTT10=
EXTT11=
PLAYORDER=
